<svg xmlns="http://www.w3.org/2000/svg"
  xmlns:xlink="http://www.w3.org/1999/xlink" viewBox="0 0 24 24" version="1.1" x="0px" y="0px">
  <title>165 - Rofl (Outline)</title>
  <desc>Created with Sketch.</desc>
  <g stroke="none" stroke-width="1" fill="none" fill-rule="evenodd">
    <g fill="#000000">
      <!-- fill="#349e92" -->
      <path d="M19.0710932,19.0710932 C15.1656312,22.9765552 8.83385969,22.9765552 4.92938908,19.0711755 C1.02384479,15.1656312 1.02384479,8.83385969 4.92922447,4.92938908 C8.83385969,1.02384479 15.1656312,1.02384479 19.0710932,4.92930678 C22.9765552,8.83385969 22.9765552,15.1656312 19.0710932,19.0710932 Z M20.4853068,20.4853068 C25.1718448,15.7987688 25.1718448,8.20054031 20.4852245,3.51501092 C15.7987688,-1.17144479 8.20054031,-1.17144479 3.51501092,3.51517553 C-1.17144479,8.20054031 -1.17144479,15.7987688 3.51509322,20.4853068 C8.20054031,25.1718448 15.7987688,25.1718448 20.4853068,20.4853068 Z"></path>
      <path d="M13.4141932,17.6568932 C11.7278106,19.3432759 9.10883757,19.008324 7.05040678,16.9498932 C4.99197599,14.8914624 4.65702413,12.2724894 6.34340678,10.5861068 C6.73393107,10.1955825 6.73393107,9.56241751 6.34340678,9.17189322 C5.95288249,8.78136893 5.31971751,8.78136893 4.92919322,9.17189322 C2.37070819,11.7303782 2.86466135,15.5925749 5.63619322,18.3641068 C8.40772509,21.1356387 12.2699218,21.6295918 14.8284068,19.0711068 C15.2189311,18.6805825 15.2189311,18.0474175 14.8284068,17.6568932 C14.4378825,17.2663689 13.8047175,17.2663689 13.4141932,17.6568932 Z"></path>
      <path d="M14.8284068,17.6568932 L6.34340678,9.17189322 C5.95288249,8.78136893 5.31971751,8.78136893 4.92919322,9.17189322 C4.53866893,9.56241751 4.53866893,10.1955825 4.92919322,10.5861068 L13.4141932,19.0711068 C13.8047175,19.4616311 14.4378825,19.4616311 14.8284068,19.0711068 C15.2189311,18.6805825 15.2189311,18.0474175 14.8284068,17.6568932 Z"></path>
      <path d="M9,7 C8.44771525,7 8,7.44771525 8,8 C8,8.55228475 8.44771525,9 9,9 L12,9 C12.5522847,9 13,8.55228475 13,8 L13,5 C13,4.44771525 12.5522847,4 12,4 C11.4477153,4 11,4.44771525 11,5 L11,7 L9,7 Z"></path>
      <path d="M19,13 C19.5522847,13 20,12.5522847 20,12 C20,11.4477153 19.5522847,11 19,11 L16,11 C15.4477153,11 15,11.4477153 15,12 L15,15 C15,15.5522847 15.4477153,16 16,16 C16.5522847,16 17,15.5522847 17,15 L17,13 L19,13 Z"></path>
    </g>
  </g>
</svg>